<?xml version="1.0" encoding="UTF-8"?>
<!DOCTYPE svg PUBLIC "-//W3C//DTD SVG 1.1//EN" "http://www.w3.org/Graphics/SVG/1.1/DTD/svg11.dtd">
<svg xmlns="http://www.w3.org/2000/svg" version="1.1" width="64px" height="64px" style="shape-rendering:geometricPrecision; text-rendering:geometricPrecision; image-rendering:optimizeQuality; fill-rule:evenodd; clip-rule:evenodd" xmlns:xlink="http://www.w3.org/1999/xlink">
<g><path style="opacity:0.794" fill="#000000" d="M 3.5,1.5 C 17.8372,1.33342 32.1705,1.50009 46.5,2C 47,2.5 47.5,3 48,3.5C 48.3333,6.83333 48.6667,10.1667 49,13.5C 51.9518,16.4243 54.1185,19.7577 55.5,23.5C 53.8333,23.5 52.1667,23.5 50.5,23.5C 49.3805,28.0575 51.0471,30.8908 55.5,32C 61.1673,37.3189 63.0007,43.8189 61,51.5C 56.5269,60.4822 49.3603,63.6489 39.5,61C 35.6125,58.2709 31.6125,55.7709 27.5,53.5C 23.3576,53.9323 19.1909,54.2656 15,54.5C 13.7387,54.2409 12.7387,53.5742 12,52.5C 11.5002,42.5056 11.3335,32.5056 11.5,22.5C 9.27843,21.6138 7.11176,21.6138 5,22.5C 3.73869,22.2409 2.73869,21.5742 2,20.5C 1.33333,14.8333 1.33333,9.16667 2,3.5C 2.71719,2.9558 3.21719,2.28913 3.5,1.5 Z M 13.5,3.5 C 23.1724,3.33353 32.8391,3.5002 42.5,4C 45.2224,5.2725 46.5557,7.43917 46.5,10.5C 45.1779,10.33 44.0113,10.6634 43,11.5C 40.6667,14.5 38.3333,17.5 36,20.5C 35.5172,21.448 35.3505,22.448 35.5,23.5C 37.1667,23.5 38.8333,23.5 40.5,23.5C 41.6195,28.0575 39.9529,30.8908 35.5,32C 30.1111,36.6121 28.1111,42.4454 29.5,49.5C 24.1272,49.8531 18.9605,49.8531 14,49.5C 13.5001,34.1703 13.3334,18.837 13.5,3.5 Z M 44.5,14.5 C 46.9086,16.3674 49.2419,18.5341 51.5,21C 50.552,21.4828 49.552,21.6495 48.5,21.5C 48.5,24.1667 48.5,26.8333 48.5,29.5C 46.5,29.5 44.5,29.5 42.5,29.5C 42.5,26.8333 42.5,24.1667 42.5,21.5C 41.448,21.6495 40.448,21.4828 39.5,21C 41.7655,19.2419 43.4322,17.0752 44.5,14.5 Z M 43.5,41.5 C 44.4702,37.8728 46.1369,37.5395 48.5,40.5C 46.9547,41.4519 45.288,41.7852 43.5,41.5 Z M 47.5,49.5 C 46.5298,53.1272 44.8631,53.4605 42.5,50.5C 44.0453,49.5481 45.712,49.2148 47.5,49.5 Z"/></g>
<g><path style="opacity:0.922" fill="#000000" d="M 16.5,10.5 C 18.604,10.2011 20.604,10.5344 22.5,11.5C 21.5,11.8333 20.5,12.1667 19.5,12.5C 17.9704,12.3601 16.9704,11.6935 16.5,10.5 Z"/></g>
<g><path style="opacity:0.972" fill="#000000" d="M 24.5,10.5 C 30.2055,10.1712 35.8722,10.5046 41.5,11.5C 38.6667,11.8333 35.8333,12.1667 33,12.5C 29.7485,12.4809 26.9151,11.8142 24.5,10.5 Z"/></g>
<g><path style="opacity:0.922" fill="#000000" d="M 16.5,16.5 C 18.604,16.2011 20.604,16.5344 22.5,17.5C 21.5,17.8333 20.5,18.1667 19.5,18.5C 17.9704,18.3601 16.9704,17.6935 16.5,16.5 Z"/></g>
<g><path style="opacity:0.957" fill="#000000" d="M 24.5,16.5 C 28.226,16.1774 31.8927,16.5108 35.5,17.5C 33.6667,17.8333 31.8333,18.1667 30,18.5C 27.7047,18.4535 25.8714,17.7868 24.5,16.5 Z"/></g>
<g><path style="opacity:0.922" fill="#000000" d="M 16.5,22.5 C 18.604,22.2011 20.604,22.5344 22.5,23.5C 21.5,23.8333 20.5,24.1667 19.5,24.5C 17.9704,24.3601 16.9704,23.6935 16.5,22.5 Z"/></g>
<g><path style="opacity:0.948" fill="#000000" d="M 24.5,22.5 C 27.5719,22.1826 30.5719,22.5159 33.5,23.5C 32,23.8333 30.5,24.1667 29,24.5C 27.0145,24.4313 25.5145,23.7647 24.5,22.5 Z"/></g>
<g><path style="opacity:0.922" fill="#000000" d="M 16.5,28.5 C 18.604,28.2011 20.604,28.5344 22.5,29.5C 21.5,29.8333 20.5,30.1667 19.5,30.5C 17.9704,30.3601 16.9704,29.6935 16.5,28.5 Z"/></g>
<g><path style="opacity:0.957" fill="#000000" d="M 24.5,28.5 C 28.226,28.1774 31.8927,28.5108 35.5,29.5C 33.6667,29.8333 31.8333,30.1667 30,30.5C 27.7047,30.4535 25.8714,29.7868 24.5,28.5 Z"/></g>
<g><path style="opacity:0.869" fill="#000000" d="M 40.5,33.5 C 43.8333,33.5 47.1667,33.5 50.5,33.5C 50.8417,34.3382 51.5084,34.6716 52.5,34.5C 52.5,35.1667 52.8333,35.5 53.5,35.5C 53.5,36.1667 53.8333,36.5 54.5,36.5C 54.5,37.1667 54.8333,37.5 55.5,37.5C 55.5,38.1667 55.8333,38.5 56.5,38.5C 56.3284,39.4916 56.6618,40.1583 57.5,40.5C 57.5,43.8333 57.5,47.1667 57.5,50.5C 56.6618,50.8417 56.3284,51.5084 56.5,52.5C 55.8333,52.5 55.5,52.8333 55.5,53.5C 54.8333,53.5 54.5,53.8333 54.5,54.5C 53.8333,54.5 53.5,54.8333 53.5,55.5C 52.8333,55.5 52.5,55.8333 52.5,56.5C 51.5084,56.3284 50.8417,56.6618 50.5,57.5C 47.1667,57.5 43.8333,57.5 40.5,57.5C 40.1583,56.6618 39.4916,56.3284 38.5,56.5C 38.5,55.8333 38.1667,55.5 37.5,55.5C 37.5,54.8333 37.1667,54.5 36.5,54.5C 36.5,53.8333 36.1667,53.5 35.5,53.5C 35.5,52.8333 35.1667,52.5 34.5,52.5C 34.6716,51.5084 34.3382,50.8417 33.5,50.5C 33.5,47.1667 33.5,43.8333 33.5,40.5C 34.3382,40.1583 34.6716,39.4916 34.5,38.5C 35.1667,38.5 35.5,38.1667 35.5,37.5C 36.1667,37.5 36.5,37.1667 36.5,36.5C 37.1667,36.5 37.5,36.1667 37.5,35.5C 38.1667,35.5 38.5,35.1667 38.5,34.5C 39.4916,34.6716 40.1583,34.3382 40.5,33.5 Z M 43.5,41.5 C 45.288,41.7852 46.9547,41.4519 48.5,40.5C 46.1369,37.5395 44.4702,37.8728 43.5,41.5 Z M 47.5,49.5 C 45.712,49.2148 44.0453,49.5481 42.5,50.5C 44.8631,53.4605 46.5298,53.1272 47.5,49.5 Z"/></g>
<g><path style="opacity:0.922" fill="#000000" d="M 16.5,34.5 C 18.604,34.2011 20.604,34.5344 22.5,35.5C 21.5,35.8333 20.5,36.1667 19.5,36.5C 17.9704,36.3601 16.9704,35.6935 16.5,34.5 Z"/></g>
<g><path style="opacity:0.906" fill="#000000" d="M 24.5,34.5 C 26.288,34.2148 27.9547,34.5481 29.5,35.5C 28.6667,35.8333 27.8333,36.1667 27,36.5C 25.6244,36.3158 24.7911,35.6491 24.5,34.5 Z"/></g>
<g><path style="opacity:0.922" fill="#000000" d="M 16.5,40.5 C 18.604,40.2011 20.604,40.5344 22.5,41.5C 21.5,41.8333 20.5,42.1667 19.5,42.5C 17.9704,42.3601 16.9704,41.6935 16.5,40.5 Z"/></g>
<g><path style="opacity:0.844" fill="#000000" d="M 24.5,40.5 C 25.675,40.281 26.675,40.6143 27.5,41.5C 25.9483,42.7979 24.9483,42.4646 24.5,40.5 Z"/></g>
</svg>
